<svg width="45" height="45" viewBox="0 0 45 45" fill="none" xmlns="http://www.w3.org/2000/svg">
<path fill-rule="evenodd" clip-rule="evenodd" d="M22.4944 0H22.5056C34.9116 0 45 10.0941 45 22.5C45 34.9059 34.9116 45 22.5056 45C17.9297 45 13.6856 43.6388 10.1278 41.2819L1.47938 44.0466L4.28344 35.6878C1.58625 31.9837 0 27.4219 0 22.5C0 10.0912 10.0884 0 22.4944 0ZM31.1831 34.9495C32.9015 34.5782 35.0559 33.307 35.5987 31.7742C36.1415 30.2386 36.1415 28.9307 35.984 28.6523C35.8568 28.4314 35.5561 28.2866 35.1071 28.0704C34.9903 28.0142 34.8633 27.9531 34.7268 27.8845C34.0659 27.5554 30.8512 25.9664 30.2437 25.7554C29.6474 25.5304 29.0793 25.6092 28.6293 26.2448C28.5437 26.3646 28.4583 26.4847 28.3734 26.6042C27.8305 27.3677 27.3068 28.1042 26.8715 28.5736C26.4749 28.9954 25.8281 29.0489 25.2852 28.8239C25.2261 28.7992 25.1583 28.7718 25.0823 28.7411C24.2228 28.394 22.3165 27.6241 20.009 25.5698C18.0627 23.8373 16.7409 21.6801 16.3584 21.0332C15.9828 20.3843 16.3068 20.0038 16.6061 19.6521C16.6117 19.6456 16.6172 19.6391 16.6227 19.6326C16.8158 19.3938 17.0031 19.1949 17.1913 18.9951C17.3267 18.8513 17.4626 18.707 17.6015 18.547C17.6221 18.5232 17.6422 18.5002 17.6617 18.4777C17.9565 18.1387 18.1321 17.9368 18.3299 17.5148C18.5549 17.0789 18.3946 16.6289 18.2343 16.297C18.124 16.0646 17.4427 14.4116 16.8578 12.9924C16.6075 12.3851 16.3748 11.8205 16.2121 11.4286C15.7762 10.3851 15.4443 10.3457 14.7834 10.3176C14.7631 10.3166 14.7426 10.3156 14.722 10.3145C14.5131 10.304 14.283 10.2923 14.0296 10.2923C13.169 10.2923 12.2718 10.5454 11.729 11.0995C11.71 11.1189 11.6902 11.139 11.6697 11.1598C10.9753 11.8661 9.42836 13.4393 9.42836 16.5754C9.42836 19.7176 11.6578 22.7585 12.0704 23.3212C12.0817 23.3367 12.0917 23.3503 12.1002 23.362C12.1251 23.3946 12.1718 23.4624 12.2399 23.561C13.0822 24.7807 17.1848 30.7219 23.3024 33.2564C28.4718 35.3995 30.0074 35.1998 31.1831 34.9495Z" fill="black"/>
</svg>
