<svg width="209" height="71" viewBox="0 0 209 71" fill="none" xmlns="http://www.w3.org/2000/svg">
<path d="M67.48 29H70.54L74.71 44.51L75.22 47.15L75.67 44.51L79.9 29H82.96L87.19 44.51L87.64 47.15L88.15 44.51L92.32 29H95.38L89.32 50H86.08L81.43 32.96L76.78 50H73.54L67.48 29ZM97.9574 29H110.527V31.64H100.837V38.18H109.717V40.82H100.837V47.36H110.857V50H97.9574V29ZM114.627 29H122.427C123.767 29 124.927 29.23 125.907 29.69C126.907 30.15 127.667 30.78 128.187 31.58C128.727 32.38 128.997 33.28 128.997 34.28C128.997 36.24 128.087 37.73 126.267 38.75C127.327 39.05 128.247 39.66 129.027 40.58C129.807 41.5 130.197 42.61 130.197 43.91C130.197 45.77 129.537 47.25 128.217 48.35C126.917 49.45 125.147 50 122.907 50H114.627V29ZM122.697 37.88C125.077 37.88 126.267 36.84 126.267 34.76C126.267 32.68 125.077 31.64 122.697 31.64H117.507V37.88H122.697ZM123.687 47.36C124.867 47.36 125.787 47.07 126.447 46.49C127.127 45.89 127.467 45.04 127.467 43.94C127.467 42.84 127.127 42 126.447 41.42C125.787 40.82 124.867 40.52 123.687 40.52H117.507V47.36H123.687ZM133.197 29H138.657V37.22H138.897L145.317 29H151.527L143.757 38.75L151.827 50H145.167L138.897 40.73H138.657V50H133.197V29ZM154.35 29H159.81V50H154.35V29ZM163.637 29H169.457L176.177 39.92L176.717 42.47H177.017V29H182.477V50H176.657L169.937 39.08L169.397 36.53H169.097V50H163.637V29ZM196.783 50.3C194.683 50.3 192.783 49.84 191.083 48.92C189.403 47.98 188.083 46.69 187.123 45.05C186.183 43.41 185.713 41.56 185.713 39.5C185.713 37.44 186.173 35.59 187.093 33.95C188.013 32.31 189.303 31.03 190.963 30.11C192.623 29.17 194.523 28.7 196.663 28.7C199.063 28.7 201.133 29.27 202.873 30.41C204.613 31.55 205.803 33.2 206.443 35.36L206.083 35.96L201.343 36.8C201.023 35.7 200.473 34.85 199.693 34.25C198.913 33.63 197.903 33.32 196.663 33.32C195.603 33.32 194.653 33.58 193.813 34.1C192.993 34.62 192.343 35.35 191.863 36.29C191.403 37.21 191.173 38.28 191.173 39.5C191.173 41.36 191.683 42.84 192.703 43.94C193.743 45.04 195.133 45.59 196.873 45.59C198.093 45.59 199.083 45.31 199.843 44.75C200.623 44.17 201.173 43.35 201.493 42.29H194.713V38.33H206.593V40.04C206.593 42.06 206.193 43.85 205.393 45.41C204.593 46.95 203.453 48.15 201.973 49.01C200.493 49.87 198.763 50.3 196.783 50.3Z" fill="white"/>
<path d="M23.9762 41.0197L21.5806 43.19L21.5781 41.3809L18.9717 44.628L20.0303 44.5947L16.6689 47.6404L13.3895 44.6696L14.443 44.6571L11.7589 41.6114L11.743 43.1767L9.34155 41.0023L10.1744 38.9219H23.1359L23.9762 41.0197Z" fill="white"/>
<path d="M33.3171 22.5487L30.6653 24.959H30.02L30.0142 24.7282L29.6928 24.7198L28.6449 26.0043L28.3234 26.0135L28.5098 24.8658V23.8542H27.6781V24.6677L27.3169 24.9515L26.7006 24.9683L26.5059 24.3428H26.0578L25.4158 25.9186H26.7006V26.6045H25.1109L23.353 30.2028L24.4689 23.0063L29.9471 19.3047L33.3171 22.5487Z" fill="white"/>
<path d="M35.4962 1.90336C35.5114 1.99387 34.5905 2.1033 33.5666 2.52951C32.7225 2.88249 32.179 3.29472 31.3619 3.9184C30.6544 4.46182 29.9935 5.06061 29.3859 5.70882C28.9438 6.17912 28.5295 6.6736 28.1451 7.18987C27.6783 7.81602 27.626 7.97811 26.7212 9.38428C26.3126 10.0195 26.4224 9.83271 25.5732 11.1303C24.4202 12.8869 24.4202 12.9289 24.1484 13.2786C23.3482 14.317 22.2915 15.3652 22.1277 15.2484C22.0281 15.1785 22.3016 14.7202 22.7135 13.8381C23.339 12.4986 23.3162 12.255 23.8952 10.8604C24.3915 9.66485 24.8448 8.57464 25.6678 7.30012C26.2817 6.30725 27.0207 5.39315 27.8674 4.57911C28.6558 3.82954 29.5421 3.00345 30.9517 2.46369C31.6011 2.21963 32.2776 2.05063 32.9673 1.96013C33.3049 1.9157 33.7861 1.90171 34.7399 1.87785C35.3273 1.85975 35.4894 1.86633 35.4962 1.90336Z" fill="white"/>
<path d="M45.6912 17.1255C45.6164 17.1331 45.618 16.5828 45.2331 15.9539C45.0591 15.6837 44.8514 15.4369 44.6152 15.2195C44.3458 14.9513 44.0551 14.7054 43.7461 14.4843C42.7072 13.7136 42.0347 13.2435 42.0347 13.2435C40.6192 12.2651 40.715 12.3504 40.5704 12.2305C39.9592 11.7271 39.4216 11.1397 38.9734 10.4858C38.469 9.75308 38.3429 9.31921 38.3093 8.94696C38.2732 8.54179 38.3387 8.11129 38.4472 8.0961C38.5556 8.0809 38.6069 8.50634 38.9961 9.06091C39.176 9.31951 39.3914 9.55139 39.6357 9.74971C39.8879 9.95567 40.135 10.0789 40.62 10.3245C40.942 10.4883 41.0058 10.501 41.2605 10.6462C41.5152 10.7913 41.6472 10.8909 41.901 11.0598C42.3138 11.3349 42.5046 11.432 42.7929 11.611C43.3897 11.9661 43.9425 12.3911 44.4396 12.8771C44.8548 13.2916 45.1599 13.5972 45.4003 14.118C45.6407 14.6388 45.687 15.1056 45.7433 15.7479C45.7979 16.441 45.7727 17.1171 45.6912 17.1255Z" fill="white"/>
<path d="M50.9797 27.9736C50.8694 28.4568 50.6429 28.9838 50.5284 28.9569C50.4139 28.9299 50.5284 28.4248 50.3953 27.6991C50.3642 27.5266 50.2783 27.114 49.9483 26.4271C49.0221 24.4908 47.371 22.4409 47.371 22.4409C46.2857 21.0939 45.3697 19.9532 44.6902 19.1762C44.3845 18.8294 44.1192 18.4489 43.8996 18.0422C43.7504 17.7667 43.624 17.4795 43.5216 17.1835C43.3714 16.7997 43.2899 16.3925 43.2808 15.9805C43.2808 15.7742 43.2808 15.291 43.4188 15.259C43.5872 15.2203 43.7902 15.8668 44.2776 16.6337C44.4654 16.9292 44.6776 17.2138 45.4118 18.0076C46.2739 18.9404 46.668 19.2915 47.8535 20.4819C49.0591 21.695 49.5433 22.2287 50.019 23.0597C50.1839 23.3492 50.3331 23.6473 50.4661 23.9529C50.6306 24.3645 50.7571 24.7903 50.8441 25.2249C50.9652 25.7636 51.0359 26.3123 51.0554 26.864C51.0812 27.2356 51.0557 27.609 50.9797 27.9736Z" fill="white"/>
<path d="M51.9631 38.2887C51.9533 38.4255 51.9133 38.9669 51.8365 39.4013C51.5474 41.0337 50.5207 42.4034 50.4031 42.3453C50.3614 42.3254 50.4603 42.143 50.5664 41.5337C50.6377 41.1436 50.6836 40.7492 50.7036 40.3531C50.7195 39.9355 50.7084 39.5173 50.6702 39.1012C50.6203 38.5536 50.531 38.0105 50.4031 37.4762C50.1964 36.5849 49.913 35.3471 49.2359 33.8216C48.8888 33.0357 48.8651 33.1376 47.5689 30.5725C47.2532 29.9342 46.9975 29.2672 46.8052 28.5802C46.6982 28.1814 46.6296 27.7934 46.6296 27.7934C46.5659 27.4336 46.5398 27.1617 46.5046 26.7778C46.463 26.3276 46.445 25.9794 46.4385 25.8302C46.4172 25.4007 46.3364 23.6796 46.4711 23.6646C46.5161 23.6597 46.5528 23.8495 46.7382 24.4431C46.7382 24.4431 46.9392 25.0832 47.1719 25.695C47.3481 26.1457 47.5483 26.5863 47.7714 27.0149C48.1194 27.7155 48.4249 28.3307 48.9051 29.1805C49.5471 30.3155 49.7693 30.5725 50.3753 31.6851C50.6206 32.1361 50.8433 32.5993 51.0426 33.073C51.1096 33.2388 51.2207 33.5074 51.3424 33.8506C51.4831 34.2391 51.6044 34.6345 51.7058 35.0354C51.8522 35.6236 51.9451 36.2241 51.9835 36.8295C52.0107 37.3158 52.0038 37.8034 51.9631 38.2887Z" fill="white"/>
<path d="M19.3711 10.3099C19.1313 10.8467 18.9605 11.2179 18.8677 11.4186C18.5943 12.0231 18.4572 12.325 18.3652 12.6987C18.2905 12.9989 18.265 13.2673 18.2174 13.7933C18.146 14.5701 18.1353 15.1579 18.1304 15.2072C18.1008 16.494 18.1427 17.877 18.2478 20.6004C18.2519 20.7208 18.256 20.8186 18.2576 20.9591C18.2831 22.4642 18.0368 23.3054 17.9464 23.5871C17.9177 23.6708 17.7141 24.3079 17.6114 24.287C17.5088 24.2661 17.6295 23.6114 17.4767 22.5971C17.4299 22.2853 17.3593 21.9483 17.3593 21.9483C17.2821 21.5795 17.2485 21.506 17.1581 21.1121C17.0834 20.7852 17.0851 20.7425 16.9742 20.1924C16.8773 19.7149 16.8412 19.5703 16.7895 19.3219C16.6787 18.7749 16.5989 18.2219 16.5505 17.6655C16.4988 17.0409 16.4894 16.4134 16.5226 15.7875C16.5406 15.3502 16.5809 14.4764 16.7738 13.6888C16.8536 13.3692 16.9542 13.0555 17.0752 12.7498C17.1243 12.6215 17.1805 12.4961 17.2435 12.3743C17.3345 12.2038 17.4351 12.0388 17.5449 11.8801C17.6796 11.677 17.7912 11.5265 17.8298 11.4704C17.9407 11.3166 18.2002 10.9621 18.4161 10.702C18.8456 10.1869 19.5 9.57487 19.606 9.661C19.6396 9.68943 19.6051 9.78391 19.3711 10.3099Z" fill="white"/>
<path d="M25.4503 4.97012C24.7919 5.61048 24.4144 6.17595 23.6642 7.30604C23.0448 8.23166 22.7355 8.69867 22.4464 9.39036C22.2151 9.94825 22.099 10.385 21.8725 11.2416C21.637 12.1361 21.5006 12.8404 21.3943 13.4033C21.2417 14.2044 21.2473 14.3054 21.0103 15.5911C20.8528 16.4478 20.7489 16.9451 20.4801 17.5602C20.3389 17.8979 20.1531 18.2136 19.9281 18.4984C19.5546 18.9654 19.0586 19.3559 19.0001 19.3003C18.9887 19.2902 18.992 19.2431 19.031 19.164C19.0699 19.0849 19.1268 18.9781 19.199 18.8199C19.3238 18.5305 19.4272 18.2318 19.5083 17.9262C19.5829 17.6334 19.6347 17.3348 19.6634 17.0334C19.7045 16.6762 19.7265 16.3169 19.7292 15.9572C19.7389 15.2386 19.8241 14.5545 19.9946 13.1862C20.0961 12.3658 20.1424 11.9543 20.2382 11.4915C20.3587 10.9097 20.5135 10.3362 20.7018 9.77407C20.8817 9.20789 21.1032 8.6568 21.3642 8.12563C21.8383 7.09907 22.5325 6.19847 23.3939 5.49268C23.816 5.12075 24.3153 4.68234 25.0509 4.302C25.7864 3.92165 26.7038 3.62882 26.7744 3.77524C26.8361 3.89893 26.2329 4.21028 25.4503 4.97012Z" fill="white"/>
<path d="M44.7416 40.3184C44.7416 40.3184 44.7075 40.5772 44.5709 41.8749C44.4932 42.5956 44.4668 43.2194 44.4079 44.4636C44.3447 45.8307 44.3814 45.8833 44.3148 47.3956C44.285 48.077 44.2525 48.8152 44.1757 49.7588C44.1288 50.3434 44.0511 51.297 43.9197 52.1905C43.778 53.1383 43.5603 54.5955 42.8715 56.3033C42.2873 57.7527 41.472 59.1025 40.4561 60.3024C39.7098 61.1792 38.8512 61.9584 37.9015 62.6206C37.2868 63.0422 36.6337 63.4073 35.9503 63.7112C35.4824 63.9144 35.0024 64.0898 34.513 64.2364C33.6919 64.5003 33.6398 64.4594 33.6313 64.441C33.5894 64.3575 34.058 64.0778 34.629 63.6686C34.629 63.6686 35.0754 63.3504 36.2507 62.3734C37.7359 61.1433 38.7806 59.1692 39.1527 58.4644C39.8799 57.0916 40.2137 56.0085 40.6387 54.6231C41.062 53.2284 41.3967 51.8094 41.6407 50.3743C41.9574 48.634 42.1819 46.8119 42.2681 46.1246C42.3833 45.1868 42.5019 44.1204 42.8485 42.7843C42.8485 42.7843 43.0465 42.0219 43.6619 40.6708C43.8211 40.3409 44.0156 40.0285 44.2423 39.7388C44.4412 39.4816 44.6631 39.1944 44.7766 39.2378C44.8901 39.2812 44.8278 39.662 44.7416 40.3184Z" fill="white"/>
<path d="M48.8859 45.375C48.8859 46.3602 48.8859 46.9771 48.7504 47.8185C48.6388 48.4961 48.472 49.1634 48.2517 49.8138C47.9715 50.6951 47.7579 51.3668 47.2542 52.1666C46.9782 52.6041 46.66 53.0134 46.3041 53.3888C45.5751 54.1769 44.6542 54.8994 44.5395 54.7913C44.4247 54.6832 45.0997 54.0431 45.7156 52.7544C46.0033 52.1439 46.2299 51.5065 46.3922 50.8514C46.7837 49.4023 46.8178 48.2516 46.8452 47.0736C46.8727 45.8955 46.8103 45.0849 46.6873 43.4761C46.5718 41.973 46.5044 41.1025 46.3141 39.8796C46.0938 38.4737 45.8985 37.8127 45.8154 36.3944C45.781 35.7851 45.7846 35.1742 45.8262 34.5653C45.8777 33.4671 45.9766 33.0689 46.1204 32.7222C46.2655 32.3729 46.4641 32.0484 46.7089 31.7603C46.6803 32.3788 46.6953 32.9986 46.7538 33.6151C46.8282 34.3152 46.9493 35.0096 47.1162 35.6935C47.3515 36.7186 47.4487 36.8774 47.93 38.5893C48.2741 39.8156 48.4487 40.4424 48.5634 41.1233C48.6914 41.8832 48.7387 42.4984 48.7903 43.1594C48.8269 43.6183 48.8859 44.3774 48.8859 45.375Z" fill="white"/>
<path d="M39.6296 49.2336C39.2806 50.3749 39.3731 50.2766 38.9779 51.6285C38.7795 52.304 38.4331 53.4775 37.879 54.9318C37.2845 56.4943 36.7271 57.6512 36.5404 58.0336C35.9451 59.2533 35.3549 60.4615 34.3098 61.91C33.7984 62.613 33.2486 63.2881 32.6626 63.9324C32.2146 64.4451 31.7329 64.9284 31.2206 65.3793C30.5599 65.9474 29.8475 66.4549 29.0925 66.8955C28.2033 67.4192 27.2599 67.8489 26.2784 68.1772C25.4901 68.4577 24.6722 68.6499 23.84 68.7503C22.8664 68.8601 22.1222 68.8064 21.3344 68.7503C20.993 68.7255 19.9277 68.6487 19.9277 68.548C19.9277 68.434 21.2924 68.5587 22.81 68.1772C24.7027 67.7007 25.9824 66.6502 27.2033 65.6485C28.4594 64.6171 29.2523 63.6731 29.8804 62.9183C30.157 62.588 30.9734 61.5822 32.729 58.738C34.3526 56.1028 36.363 52.5576 37.0306 51.0067C37.197 50.6135 37.3882 50.2309 37.6032 49.8613C37.8664 49.4054 38.0917 49.1007 38.5407 48.4904C38.9075 47.9805 39.3051 47.4927 39.7313 47.0295C40.1475 46.5811 40.3577 46.3573 40.4401 46.4002C40.615 46.4919 40.1668 47.4771 39.6296 49.2336Z" fill="white"/>
<path d="M9.96403 30.2028L8.20533 26.6043H6.61646V25.9191H7.90131L7.2593 24.3424H6.81113L6.61646 24.9687L5.99929 24.9511L5.63811 24.6681V23.8545H4.80722V24.8654L4.99361 26.0132L4.67219 26.0048L3.62343 24.7193L3.30201 24.7286L3.29704 24.9595H2.65172L0 22.5489L3.36994 19.3047L8.84817 23.0057L9.96403 30.2028Z" fill="white"/>
<path d="M35.1772 50.7789C35.1272 50.7082 34.8798 50.8016 34.6666 50.8824C34.3411 51.0018 34.0329 51.1648 33.7503 51.367C32.0228 52.7055 30.1894 54.6885 30.1894 54.6885C29.204 55.7553 28.4535 56.5024 27.4698 57.4817C26.571 58.3769 25.9271 58.9893 25.2033 59.6338C24.7576 60.03 24.576 60.1773 23.7039 60.916C21.3858 62.8863 21.5865 62.7669 20.9835 63.2515C19.8285 64.1981 18.5832 65.0264 17.2659 65.7241C16.2978 66.2513 15.2805 66.6807 14.2289 67.0063C13.1221 67.3443 11.9819 67.559 10.8288 67.6465C10.1349 67.6978 9.41273 67.7029 8.74636 67.6911L9.53352 65.8536L4.35913 66.4586L7.46443 70.682L8.25575 68.8311C8.94678 69.0514 9.65683 69.2055 10.3765 69.2913C11.8834 69.4975 13.4128 69.4665 14.9103 69.1996C16.5463 68.9017 17.7241 68.386 18.6728 67.9637C20.1722 67.2906 21.2275 66.6024 22.073 66.0404C23.1376 65.3334 24.1526 64.5531 25.1108 63.7049C26.3627 62.5877 27.5155 61.362 28.556 60.0418C28.9408 59.5547 29.4172 58.8774 30.3693 57.5238C31.5355 55.8697 32.1127 55.0436 32.5 54.4109C32.8037 53.8868 33.1374 53.3811 33.4996 52.8965C34.0827 52.1284 34.4517 51.7052 34.4517 51.7052C34.9206 51.1743 35.2413 50.8723 35.1772 50.7789Z" fill="white"/>
<path d="M47.3291 3.54367L43.5436 0L43.0433 2.06027C42.9049 2.01165 42.7523 1.96138 42.583 1.91523C42.1448 1.80283 41.6961 1.73517 41.2439 1.71332C40.8129 1.67879 40.3802 1.66944 39.9481 1.6853C39.2373 1.71553 38.5312 1.81518 37.8402 1.98281C37.1941 2.11384 36.5631 2.30904 35.9566 2.56545C35.4672 2.77807 35.1086 2.99069 34.3907 3.41758C33.807 3.767 33.3976 4.00929 32.939 4.33728C32.1261 4.9191 31.6216 5.43335 30.8061 6.26652C30.5785 6.4981 29.8964 7.20189 29.0809 8.19411C28.4973 8.90861 28.0553 9.51268 27.7877 9.87612C26.8905 11.1073 26.8004 11.3719 26.2451 11.8729C25.704 12.36 25.1762 12.6616 25.2245 12.7473C25.2729 12.833 25.8365 12.6047 25.9274 12.5677C26.5666 12.3058 27.1582 11.9422 27.6785 11.4914C28.3889 10.8939 28.875 10.439 29.2886 10.0558C30.0265 9.37424 30.5935 8.86494 31.7392 7.85788C32.7948 6.93158 33.0358 6.72637 33.3284 6.51211C33.6211 6.29784 33.5069 6.3992 34.9619 5.43582C35.6915 4.95289 35.9283 4.78972 36.3686 4.56144C36.7855 4.3447 37.1357 4.20048 37.4575 4.06698C37.9021 3.87825 38.3567 3.71319 38.8191 3.57251C39.367 3.40769 39.7947 3.32528 39.9081 3.30303C40.3584 3.2165 40.8895 3.14974 42.3587 3.14562H42.7831L42.3329 5.00728L47.3291 3.54367Z" fill="white"/>
<path d="M23.9762 50.4522L21.2694 52.0286L20.2485 52.6228L16.6564 51.7773L13.1045 52.6126H13.1037L13.0584 52.6177L12.0383 52.0235L9.34155 50.4539L14.0869 50.9725L14.0886 50.9717H14.0894L15.5643 50.2136L16.6564 47.9521L17.7493 50.2179L19.215 50.9725H19.2158L23.9762 50.4522Z" fill="white"/>
</svg>
